<?xml version="1.0" encoding="UTF-8"?>
<svg xmlns="http://www.w3.org/2000/svg" width="510.0" height="168.0" viewBox="0 0 510.0 168.0">
<rect width="100%" height="100%" fill="#ffffff"/>
<text x="4" y="14" font-family="sans-serif" font-size="11" fill="#333">framed_hi (gray=design keep, white=waste, orange=weed)</text>
<g transform="translate(0.0,22.0)">
<rect x="0.0" y="0.0" width="160.0" height="140.0" fill="#ffffff" stroke="#ddd"/>
<g transform="translate(20.0,20.0)">
<path d="M 6.000 6.000 L 114.000 6.000 L 114.000 94.000 L 6.000 94.000 L 6.000 6.000 Z M 0.000 0.000 L 120.000 0.000 L 120.000 100.000 L 0.000 100.000 L 0.000 0.000 Z M 28.000 26.000 L 36.000 26.000 L 36.000 47.000 L 50.000 47.000 L 50.000 26.000 L 58.000 26.000 L 58.000 80.000 L 50.000 80.000 L 50.000 57.000 L 36.000 57.000 L 36.000 80.000 L 28.000 80.000 L 28.000 26.000 Z M 82.000 26.000 L 90.000 26.000 L 90.000 80.000 L 82.000 80.000 L 82.000 26.000 Z" fill="#9a9a9a" fill-opacity="1" fill-rule="evenodd" stroke="none"/>
<path d="M 0.000 0.000 L 120.000 0.000 L 120.000 100.000 L 0.000 100.000 L 0.000 0.000 Z M 6.000 6.000 L 114.000 6.000 L 114.000 94.000 L 6.000 94.000 L 6.000 6.000 Z M 28.000 26.000 L 36.000 26.000 L 36.000 47.000 L 50.000 47.000 L 50.000 26.000 L 58.000 26.000 L 58.000 80.000 L 50.000 80.000 L 50.000 57.000 L 36.000 57.000 L 36.000 80.000 L 28.000 80.000 L 28.000 26.000 Z M 82.000 26.000 L 90.000 26.000 L 90.000 80.000 L 82.000 80.000 L 82.000 26.000 Z" fill="none" stroke="#666666" stroke-width="1.2"/>
<path d="M -12.000 -12.000 L 132.000 -12.000 L 132.000 112.000 L -12.000 112.000 L -12.000 -12.000" fill="none" stroke="#e67e22" stroke-width="1.0"/>
</g>
<text x="4" y="136.0" font-family="sans-serif" font-size="9" fill="#555">frame · segs=4 len=536 out=0 inkeep=0</text>
</g>
<g transform="translate(175.0,22.0)">
<rect x="0.0" y="0.0" width="160.0" height="140.0" fill="#ffffff" stroke="#ddd"/>
<g transform="translate(20.0,20.0)">
<path d="M 6.000 6.000 L 114.000 6.000 L 114.000 94.000 L 6.000 94.000 L 6.000 6.000 Z M 0.000 0.000 L 120.000 0.000 L 120.000 100.000 L 0.000 100.000 L 0.000 0.000 Z M 28.000 26.000 L 36.000 26.000 L 36.000 47.000 L 50.000 47.000 L 50.000 26.000 L 58.000 26.000 L 58.000 80.000 L 50.000 80.000 L 50.000 57.000 L 36.000 57.000 L 36.000 80.000 L 28.000 80.000 L 28.000 26.000 Z M 82.000 26.000 L 90.000 26.000 L 90.000 80.000 L 82.000 80.000 L 82.000 26.000 Z" fill="#9a9a9a" fill-opacity="1" fill-rule="evenodd" stroke="none"/>
<path d="M 0.000 0.000 L 120.000 0.000 L 120.000 100.000 L 0.000 100.000 L 0.000 0.000 Z M 6.000 6.000 L 114.000 6.000 L 114.000 94.000 L 6.000 94.000 L 6.000 6.000 Z M 28.000 26.000 L 36.000 26.000 L 36.000 47.000 L 50.000 47.000 L 50.000 26.000 L 58.000 26.000 L 58.000 80.000 L 50.000 80.000 L 50.000 57.000 L 36.000 57.000 L 36.000 80.000 L 28.000 80.000 L 28.000 26.000 Z M 82.000 26.000 L 90.000 26.000 L 90.000 80.000 L 82.000 80.000 L 82.000 26.000 Z" fill="none" stroke="#666666" stroke-width="1.2"/>
<path d="M -12.000 -12.000 L -12.000 112.000 M 3.000 -12.000 L 3.000 -0.000 M 3.000 100.000 L 3.000 112.000 M 18.000 -12.000 L 18.000 -0.000 M 18.000 6.000 L 18.000 94.000 M 18.000 100.000 L 18.000 112.000 M 33.000 -12.000 L 33.000 -0.000 M 33.000 6.000 L 33.000 26.000 M 33.000 80.000 L 33.000 94.000 M 33.000 100.000 L 33.000 112.000 M 48.000 -12.000 L 48.000 -0.000 M 48.000 100.000 L 48.000 112.000 M 63.000 -12.000 L 63.000 -0.000 M 63.000 6.000 L 63.000 94.000 M 63.000 100.000 L 63.000 112.000 M 78.000 -12.000 L 78.000 -0.000 M 78.000 100.000 L 78.000 112.000 M 93.000 -12.000 L 93.000 -0.000 M 93.000 100.000 L 93.000 112.000 M 108.000 -12.000 L 108.000 -0.000 M 108.000 6.000 L 108.000 94.000 M 108.000 100.000 L 108.000 112.000 M -12.000 -12.000 L 132.000 -12.000 M -12.000 3.000 L -0.000 3.000 M 120.000 3.000 L 132.000 3.000 M -12.000 18.000 L -0.000 18.000 M 6.000 18.000 L 114.000 18.000 M 120.000 18.000 L 132.000 18.000 M -12.000 33.000 L -0.000 33.000 M 6.000 33.000 L 28.000 33.000 M 36.000 33.000 L 50.000 33.000 M 58.000 33.000 L 82.000 33.000 M 90.000 33.000 L 114.000 33.000 M 120.000 33.000 L 132.000 33.000 M -12.000 48.000 L -0.000 48.000 M 6.000 48.000 L 28.000 48.000 M 58.000 48.000 L 82.000 48.000 M 90.000 48.000 L 114.000 48.000 M 120.000 48.000 L 132.000 48.000 M -12.000 63.000 L -0.000 63.000 M 6.000 63.000 L 28.000 63.000 M 36.000 63.000 L 50.000 63.000 M 58.000 63.000 L 82.000 63.000 M 90.000 63.000 L 114.000 63.000 M 120.000 63.000 L 132.000 63.000 M -12.000 78.000 L -0.000 78.000 M 6.000 78.000 L 28.000 78.000 M 36.000 78.000 L 50.000 78.000 M 58.000 78.000 L 82.000 78.000 M 90.000 78.000 L 114.000 78.000 M 120.000 78.000 L 132.000 78.000 M -12.000 93.000 L -0.000 93.000 M 120.000 93.000 L 132.000 93.000 M -12.000 108.000 L 132.000 108.000" fill="none" stroke="#e67e22" stroke-width="1.0"/>
</g>
<text x="4" y="136.0" font-family="sans-serif" font-size="9" fill="#555">grid · segs=54 len=1500 out=0 inkeep=0</text>
</g>
<g transform="translate(350.0,22.0)">
<rect x="0.0" y="0.0" width="160.0" height="140.0" fill="#ffffff" stroke="#ddd"/>
<g transform="translate(20.0,20.0)">
<path d="M 6.000 6.000 L 114.000 6.000 L 114.000 94.000 L 6.000 94.000 L 6.000 6.000 Z M 0.000 0.000 L 120.000 0.000 L 120.000 100.000 L 0.000 100.000 L 0.000 0.000 Z M 28.000 26.000 L 36.000 26.000 L 36.000 47.000 L 50.000 47.000 L 50.000 26.000 L 58.000 26.000 L 58.000 80.000 L 50.000 80.000 L 50.000 57.000 L 36.000 57.000 L 36.000 80.000 L 28.000 80.000 L 28.000 26.000 Z M 82.000 26.000 L 90.000 26.000 L 90.000 80.000 L 82.000 80.000 L 82.000 26.000 Z" fill="#9a9a9a" fill-opacity="1" fill-rule="evenodd" stroke="none"/>
<path d="M 0.000 0.000 L 120.000 0.000 L 120.000 100.000 L 0.000 100.000 L 0.000 0.000 Z M 6.000 6.000 L 114.000 6.000 L 114.000 94.000 L 6.000 94.000 L 6.000 6.000 Z M 28.000 26.000 L 36.000 26.000 L 36.000 47.000 L 50.000 47.000 L 50.000 26.000 L 58.000 26.000 L 58.000 80.000 L 50.000 80.000 L 50.000 57.000 L 36.000 57.000 L 36.000 80.000 L 28.000 80.000 L 28.000 26.000 Z M 82.000 26.000 L 90.000 26.000 L 90.000 80.000 L 82.000 80.000 L 82.000 26.000 Z" fill="none" stroke="#666666" stroke-width="1.2"/>
<path d="M 125.061 -8.624 L 128.730 -4.876 M 128.730 -4.876 L 130.000 0.000 M 130.000 0.000 L 130.000 100.000 M 130.000 100.000 L 128.625 105.061 M 128.625 105.061 L 124.876 108.730 M 124.876 108.730 L 120.000 110.000 M 120.000 110.000 L 0.000 110.000 M 0.000 110.000 L -5.061 108.625 M -5.061 108.625 L -8.730 104.876 M -8.730 104.876 L -10.000 100.000 M -10.000 100.000 L -10.000 0.000 M -10.000 0.000 L -8.624 -5.061 M -8.624 -5.061 L -4.876 -8.730 M -4.876 -8.730 L 0.000 -10.000 M 0.000 -10.000 L 120.000 -10.000 M 120.000 -10.000 L 125.061 -8.624 M 60.000 0.000 L 60.000 -10.000 M 36.000 26.000 L 50.000 26.000 M 50.000 80.000 L 36.000 80.000 M 82.000 26.000 L 58.000 26.000 M 82.000 80.000 L 58.000 80.000 M 54.000 80.000 L 54.000 94.000" fill="none" stroke="#e67e22" stroke-width="1.0"/>
</g>
<text x="4" y="136.0" font-family="sans-serif" font-size="9" fill="#555">auto · segs=22 len=602 out=0 inkeep=0 traps=0</text>
</g>
</svg>